<?xml version="1.0" ?><!DOCTYPE svg  PUBLIC '-//W3C//DTD SVG 1.1//EN'  'http://www.w3.org/Graphics/SVG/1.1/DTD/svg11.dtd'><svg enable-background="new 0 0 26 26" id="Слой_1" version="1.1" viewBox="0 0 26 26" xml:space="preserve" xmlns="http://www.w3.org/2000/svg" xmlns:xlink="http://www.w3.org/1999/xlink"><g><path d="M24.9937134,7.7363281C24.9942017,7.7253418,25,7.7161255,25,7.7050781   c0-0.0361328-0.015625-0.0671387-0.0205688-0.1019287c-0.0073242-0.0523071-0.0127563-0.1030884-0.0308228-0.1526489   C24.9317627,7.40448,24.906189,7.3656616,24.8811035,7.3243408c-0.0245972-0.0409546-0.0466919-0.0814209-0.0791626-0.1174316   c-0.0354614-0.0393066-0.0780029-0.0679321-0.1209717-0.0990601c-0.0283813-0.0206299-0.0484619-0.0488892-0.0803833-0.0658569   l-11.25-5.9550781c-0.0217285-0.0114136-0.0455322-0.0108032-0.067749-0.0198975   c-0.046875-0.0193481-0.0931396-0.0322876-0.1429443-0.0419312c-0.0474243-0.0090332-0.0927124-0.0152588-0.1401978-0.0150757   c-0.0473633-0.0001831-0.0925293,0.0059814-0.1398315,0.0150146c-0.0502319,0.0096436-0.0969238,0.0227661-0.144104,0.0423584   c-0.0217896,0.0089722-0.045105,0.0083618-0.0663452,0.0195313l-11.25,5.9550781   C1.3674927,7.05896,1.3474121,7.0872192,1.3190308,7.1078491C1.276062,7.1389771,1.2335205,7.1676025,1.1980591,7.2069092   C1.1655884,7.2429199,1.1434937,7.2833862,1.1188965,7.3243408C1.093811,7.3656616,1.0682373,7.40448,1.0513916,7.4505005   C1.0333252,7.500061,1.0278931,7.5508423,1.0205688,7.6031494C1.015625,7.6379395,1,7.6689453,1,7.7050781   c0,0.0110474,0.0057983,0.0202637,0.0062866,0.03125c0.0020142,0.0496216,0.0174561,0.0969849,0.029541,0.1461792   c0.0122681,0.0489502,0.0206909,0.0978394,0.0420532,0.1424561c0.0046997,0.0099487,0.0038452,0.020874,0.0090332,0.0307007   c0.0095215,0.0180054,0.0290527,0.0248413,0.0397949,0.041748c0.0531616,0.0839844,0.1196289,0.1535034,0.2007446,0.2105713   c0.0270386,0.0189209,0.0499878,0.038208,0.0791016,0.0533447c0.104187,0.0548706,0.2175293,0.09375,0.3434448,0.09375h22.5   c0.1259155,0,0.2392578-0.0388794,0.3434448-0.09375c0.0291138-0.0151367,0.052063-0.0344238,0.0791016-0.0533447   c0.0811157-0.0570679,0.147583-0.1265869,0.2007446-0.2105713c0.0107422-0.0169067,0.0302734-0.0237427,0.0397949-0.041748   c0.005188-0.0098267,0.0043335-0.020752,0.0090332-0.0307007c0.0213623-0.0446167,0.0297852-0.0935059,0.0420532-0.1424561   C24.9762573,7.833313,24.9916992,7.7859497,24.9937134,7.7363281z M13,2.5986938l8.2299194,4.3563843H4.7700806L13,2.5986938z" fill="#1D1D1B"/><path d="M10.3046875,19.4599609c0,0.4140625,0.3359375,0.75,0.75,0.75h3.890625   c0.4140625,0,0.75-0.3359375,0.75-0.75c0-0.3205566-0.2033081-0.5894775-0.4863281-0.6967163V10.699646   c0.28302-0.1072388,0.4863281-0.3761597,0.4863281-0.6967163c0-0.4140625-0.3359375-0.75-0.75-0.75h-3.890625   c-0.4140625,0-0.75,0.3359375-0.75,0.75c0,0.3205566,0.2033081,0.5894775,0.4863281,0.6967163v8.0635986   C10.5079956,18.8704834,10.3046875,19.1394043,10.3046875,19.4599609z M12.2910156,18.7099609v-7.9570313h1.4179688v7.9570313   H12.2910156z" fill="#1D1D1B"/><path d="M3.8203125,19.4599609c0,0.4140625,0.3359375,0.75,0.75,0.75h3.890625   c0.4140625,0,0.75-0.3359375,0.75-0.75c0-0.3205566-0.2033081-0.5894775-0.4863281-0.6967163V10.699646   c0.28302-0.1072388,0.4863281-0.3761597,0.4863281-0.6967163c0-0.4140625-0.3359375-0.75-0.75-0.75h-3.890625   c-0.4140625,0-0.75,0.3359375-0.75,0.75c0,0.3205566,0.2033081,0.5894775,0.4863281,0.6967163v8.0635986   C4.0236206,18.8704834,3.8203125,19.1394043,3.8203125,19.4599609z M5.8066406,18.7099609v-7.9570313h1.4179688v7.9570313   H5.8066406z" fill="#1D1D1B"/><path d="M16.7890625,19.4599609c0,0.4140625,0.3359375,0.75,0.75,0.75h3.890625   c0.4140625,0,0.75-0.3359375,0.75-0.75c0-0.3205566-0.2033081-0.5894775-0.4863281-0.6967163V10.699646   c0.28302-0.1072388,0.4863281-0.3761597,0.4863281-0.6967163c0-0.4140625-0.3359375-0.75-0.75-0.75h-3.890625   c-0.4140625,0-0.75,0.3359375-0.75,0.75c0,0.3205566,0.2033081,0.5894775,0.4863281,0.6967163v8.0635986   C16.9923706,18.8704834,16.7890625,19.1394043,16.7890625,19.4599609z M18.7753906,18.7099609v-7.9570313h1.4179688v7.9570313   H18.7753906z" fill="#1D1D1B"/><path d="M1.9833984,21.8466797c0,0.4140625,0.3359375,0.75,0.75,0.75h20.5332031   c0.4140625,0,0.75-0.3359375,0.75-0.75s-0.3359375-0.75-0.75-0.75H2.7333984   C2.3193359,21.0966797,1.9833984,21.4326172,1.9833984,21.8466797z" fill="#1D1D1B"/><path d="M24.0771484,23.5H1.9228516c-0.4140625,0-0.75,0.3359375-0.75,0.75s0.3359375,0.75,0.75,0.75h22.1542969   c0.4140625,0,0.75-0.3359375,0.75-0.75S24.4912109,23.5,24.0771484,23.5z" fill="#1D1D1B"/></g></svg>