<?xml version="1.0" ?><svg id="Layer_1" style="enable-background:new 0 0 74 74;" version="1.1" viewBox="0 0 74 74" xml:space="preserve" xmlns="http://www.w3.org/2000/svg" xmlns:xlink="http://www.w3.org/1999/xlink"><style type="text/css">
	.st0{fill:#2B3033;}
</style><g><path class="st0" d="M49,29.1c0-4.7-3.3-8.6-7.7-9.6v-2.2c0-1.1-0.9-2-2-2s-2,0.9-2,2v2h-2.7v-2c0-1.1-0.9-2-2-2s-2,0.9-2,2v2H27   c-1.1,0-2,0.9-2,2s0.9,2,2,2h3.6v27.5H27c-1.1,0-2,0.9-2,2s0.9,2,2,2h3.6v2c0,1.1,0.9,2,2,2s2-0.9,2-2v-2h2.7v2c0,1.1,0.9,2,2,2   s2-0.9,2-2v-2.2c4.4-1,7.7-4.9,7.7-9.6c0-3.2-1.6-6.1-3.9-7.9C47.5,35.2,49,32.3,49,29.1z M45,44.9c0,3.2-2.6,5.9-5.9,5.9h-4.5V39   h4.5C42.4,39,45,41.6,45,44.9z M34.6,35V23.3h4.5c3.2,0,5.9,2.6,5.9,5.9S42.4,35,39.1,35H34.6z"/><path class="st0" d="M37,3C18.3,3,3,18.3,3,37s15.3,34,34,34s34-15.3,34-34S55.7,3,37,3z M37,67C20.5,67,7,53.5,7,37S20.5,7,37,7   s30,13.5,30,30S53.5,67,37,67z"/></g></svg>