<?xml version="1.0" ?><!DOCTYPE svg  PUBLIC '-//W3C//DTD SVG 1.1//EN'  'http://www.w3.org/Graphics/SVG/1.1/DTD/svg11.dtd'><svg enable-background="new 0 0 512 512" height="512px" id="Layer_1" version="1.1" viewBox="0 0 512 512" width="512px" xml:space="preserve" xmlns="http://www.w3.org/2000/svg" xmlns:xlink="http://www.w3.org/1999/xlink"><g><path d="M193.365,227.126c0,21.905-17.778,39.683-39.703,39.683c-21.92,0-39.698-17.777-39.698-39.683   c0-21.933,17.777-39.708,39.698-39.708C175.587,187.418,193.365,205.194,193.365,227.126z"/><path d="M130.71,280.614l22.951,25.036l26.756-26.756c0,0,49.014,1.72,97.164-32.625c0,0,18.474-12.6,27.456,7.08   c0,0,7.931,23.135-19.858,33.313c0,0-61.437,35.725-81.113,36.93v61.451H84.97V323.43C84.97,323.43,86.001,285.455,130.71,280.614z   "/><path d="M188.53,183.798l-15.702-8.979v-42.632c0,0,2.921-11.902,13.622-12.25h233.357c0,0,13.114,1.728,12.763,13.982v175.529   c0,0-1.201,11.383-13.105,10.524c-11.907-0.863-157.93,0-157.93,0l27.439-13.808H416.18V135.124H188.702L188.53,183.798z"/><path d="M241.519,242.303l-7.935-13.285l45.547-27.791c0,0,7.083-7.588,13.126,0l28.827,22.267l37.102-31.583l-10.357-9.493   l33.657-3.632l-1.892,33.659l-10.539-10.524l-42.97,35.902c0,0-5.18,5.87-12.085-1.395L285.18,214L241.519,242.303z"/></g></svg>